<svg xmlns="http://www.w3.org/2000/svg" width="1024" height="1024" fill="none" viewBox="0 0 1024 1024" id="apple-store">
  <rect width="690" height="690" x="167" y="167" fill="#fff" rx="100"></rect>
  <g filter="url(#filter0_diii_1_121)">
    <path fill="#00D5FF" fill-rule="evenodd" d="M427.489 366.412H387C349.445 366.412 319 396.856 319 434.412V669C319 706.555 349.445 737 387 737H637.667C675.222 737 705.667 706.555 705.667 669V434.412C705.667 396.856 675.222 366.412 637.667 366.412H596.344C593.672 322.106 556.894 287 511.917 287C466.939 287 430.161 322.106 427.489 366.412ZM582.203 366.412C579.961 329.082 548.977 299.5 511.083 299.5C473.19 299.5 442.205 329.082 439.963 366.412H582.203Z" clip-rule="evenodd"></path>
    <path fill="url(#paint0_linear_1_121)" fill-rule="evenodd" d="M427.489 366.412H387C349.445 366.412 319 396.856 319 434.412V669C319 706.555 349.445 737 387 737H637.667C675.222 737 705.667 706.555 705.667 669V434.412C705.667 396.856 675.222 366.412 637.667 366.412H596.344C593.672 322.106 556.894 287 511.917 287C466.939 287 430.161 322.106 427.489 366.412ZM582.203 366.412C579.961 329.082 548.977 299.5 511.083 299.5C473.19 299.5 442.205 329.082 439.963 366.412H582.203Z" clip-rule="evenodd"></path>
    <path fill="url(#paint1_linear_1_121)" fill-opacity=".7" fill-rule="evenodd" d="M427.489 366.412H387C349.445 366.412 319 396.856 319 434.412V669C319 706.555 349.445 737 387 737H637.667C675.222 737 705.667 706.555 705.667 669V434.412C705.667 396.856 675.222 366.412 637.667 366.412H596.344C593.672 322.106 556.894 287 511.917 287C466.939 287 430.161 322.106 427.489 366.412ZM582.203 366.412C579.961 329.082 548.977 299.5 511.083 299.5C473.19 299.5 442.205 329.082 439.963 366.412H582.203Z" clip-rule="evenodd"></path>
  </g>
  <g filter="url(#filter1_dii_1_121)">
    <path fill="#fff" d="M592.333 578.344C587.969 588.017 585.866 592.341 580.253 600.879C572.395 612.809 561.31 627.706 547.617 627.8C535.426 627.911 532.28 619.863 515.725 620.005C499.185 620.084 495.738 627.958 483.532 627.832C469.823 627.706 459.339 614.292 451.481 602.378C429.502 568.97 427.178 529.803 440.76 508.973C450.374 494.202 465.569 485.523 479.847 485.523C494.394 485.523 503.534 493.492 515.551 493.492C527.22 493.492 534.319 485.507 551.143 485.507C563.856 485.507 577.296 492.419 586.91 504.349C555.476 521.55 560.583 566.351 592.333 578.344ZM538.367 472.172C544.487 464.329 549.135 453.267 547.443 442C537.466 442.679 525.797 449.038 518.982 457.276C512.799 464.787 507.676 475.928 509.669 486.706C520.563 487.053 531.837 480.568 538.367 472.172Z"></path>
  </g>
  <defs>
    <linearGradient id="paint0_linear_1_121" x1="512.63" x2="512.63" y1="125.393" y2="637" gradientUnits="userSpaceOnUse">
      <stop offset=".005" stop-color="#fff" stop-opacity=".08"></stop>
      <stop offset=".085" stop-opacity=".08"></stop>
      <stop offset=".337" stop-color="#fff" stop-opacity=".1"></stop>
      <stop offset=".661" stop-color="#fff" stop-opacity=".1"></stop>
      <stop offset="1" stop-opacity=".1"></stop>
    </linearGradient>
    <linearGradient id="paint1_linear_1_121" x1="512.333" x2="512.333" y1="287" y2="737" gradientUnits="userSpaceOnUse">
      <stop stop-color="#52E2FF"></stop>
      <stop offset="1" stop-color="#fff" stop-opacity="0"></stop>
    </linearGradient>
    <filter id="filter0_diii_1_121" width="426.667" height="503.656" x="299" y="266.806" color-interpolation-filters="sRGB" filterUnits="userSpaceOnUse">
      <feFlood flood-opacity="0" result="BackgroundImageFix"></feFlood>
      <feColorMatrix in="SourceAlpha" result="hardAlpha" values="0 0 0 0 0 0 0 0 0 0 0 0 0 0 0 0 0 0 127 0"></feColorMatrix>
      <feOffset dy="13.462"></feOffset>
      <feGaussianBlur stdDeviation="10"></feGaussianBlur>
      <feColorMatrix values="0 0 0 0 0.639132 0 0 0 0 0.91555 0 0 0 0 0.970833 0 0 0 0.6 0"></feColorMatrix>
      <feBlend in2="BackgroundImageFix" result="effect1_dropShadow_1_121"></feBlend>
      <feBlend in="SourceGraphic" in2="effect1_dropShadow_1_121" result="shape"></feBlend>
      <feColorMatrix in="SourceAlpha" result="hardAlpha" values="0 0 0 0 0 0 0 0 0 0 0 0 0 0 0 0 0 0 127 0"></feColorMatrix>
      <feOffset dy="-20.194"></feOffset>
      <feGaussianBlur stdDeviation="45"></feGaussianBlur>
      <feComposite in2="hardAlpha" k2="-1" k3="1" operator="arithmetic"></feComposite>
      <feColorMatrix values="0 0 0 0 0.575 0 0 0 0 0.929167 0 0 0 0 1 0 0 0 0.6 0"></feColorMatrix>
      <feBlend in2="shape" result="effect2_innerShadow_1_121"></feBlend>
      <feColorMatrix in="SourceAlpha" result="hardAlpha" values="0 0 0 0 0 0 0 0 0 0 0 0 0 0 0 0 0 0 127 0"></feColorMatrix>
      <feOffset dy="-15"></feOffset>
      <feGaussianBlur stdDeviation="6.5"></feGaussianBlur>
      <feComposite in2="hardAlpha" k2="-1" k3="1" operator="arithmetic"></feComposite>
      <feColorMatrix values="0 0 0 0 1 0 0 0 0 1 0 0 0 0 1 0 0 0 0.3 0"></feColorMatrix>
      <feBlend in2="effect2_innerShadow_1_121" result="effect3_innerShadow_1_121"></feBlend>
      <feColorMatrix in="SourceAlpha" result="hardAlpha" values="0 0 0 0 0 0 0 0 0 0 0 0 0 0 0 0 0 0 127 0"></feColorMatrix>
      <feOffset dy="10"></feOffset>
      <feGaussianBlur stdDeviation="7"></feGaussianBlur>
      <feComposite in2="hardAlpha" k2="-1" k3="1" operator="arithmetic"></feComposite>
      <feColorMatrix values="0 0 0 0 1 0 0 0 0 1 0 0 0 0 1 0 0 0 0.25 0"></feColorMatrix>
      <feBlend in2="effect3_innerShadow_1_121" result="effect4_innerShadow_1_121"></feBlend>
    </filter>
    <filter id="filter1_dii_1_121" width="278.469" height="304.302" x="373.099" y="415.075" color-interpolation-filters="sRGB" filterUnits="userSpaceOnUse">
      <feFlood flood-opacity="0" result="BackgroundImageFix"></feFlood>
      <feColorMatrix in="SourceAlpha" result="hardAlpha" values="0 0 0 0 0 0 0 0 0 0 0 0 0 0 0 0 0 0 127 0"></feColorMatrix>
      <feOffset dy="32.31"></feOffset>
      <feGaussianBlur stdDeviation="29.617"></feGaussianBlur>
      <feColorMatrix values="0 0 0 0 0 0 0 0 0 0.0980392 0 0 0 0 0.345098 0 0 0 0.25 0"></feColorMatrix>
      <feBlend in2="BackgroundImageFix" result="effect1_dropShadow_1_121"></feBlend>
      <feBlend in="SourceGraphic" in2="effect1_dropShadow_1_121" result="shape"></feBlend>
      <feColorMatrix in="SourceAlpha" result="hardAlpha" values="0 0 0 0 0 0 0 0 0 0 0 0 0 0 0 0 0 0 127 0"></feColorMatrix>
      <feOffset dy="-21.54"></feOffset>
      <feGaussianBlur stdDeviation="13.462"></feGaussianBlur>
      <feComposite in2="hardAlpha" k2="-1" k3="1" operator="arithmetic"></feComposite>
      <feColorMatrix values="0 0 0 0 0.0716667 0 0 0 0 0.498639 0 0 0 0 0.716667 0 0 0 0.29 0"></feColorMatrix>
      <feBlend in2="shape" result="effect2_innerShadow_1_121"></feBlend>
      <feColorMatrix in="SourceAlpha" result="hardAlpha" values="0 0 0 0 0 0 0 0 0 0 0 0 0 0 0 0 0 0 127 0"></feColorMatrix>
      <feOffset dy="-8.077"></feOffset>
      <feGaussianBlur stdDeviation="5.385"></feGaussianBlur>
      <feComposite in2="hardAlpha" k2="-1" k3="1" operator="arithmetic"></feComposite>
      <feColorMatrix values="0 0 0 0 1 0 0 0 0 1 0 0 0 0 1 0 0 0 0.75 0"></feColorMatrix>
      <feBlend in2="effect2_innerShadow_1_121" result="effect3_innerShadow_1_121"></feBlend>
    </filter>
  </defs>
</svg>
